<svg xmlns="http://www.w3.org/2000/svg" width="420" height="370" viewBox="0 0 420 370">
  <style>
    text { font-family: -apple-system, BlinkMacSystemFont, "Segoe UI", Helvetica, Arial, sans-serif; }
  </style>
  <text x="210.0" y="26" fill="#1f2328" font-size="14.5" font-weight="600" text-anchor="middle" letter-spacing="0.5">Language & IaC Stack</text>
  <polygon points="210.0,168.2 234.9,182.6 234.9,211.4 210.0,225.8 185.1,211.4 185.1,182.6" fill="none" stroke="#d0d7de" stroke-width="1" stroke-dasharray="3 3"/><polygon points="210.0,139.5 259.8,168.2 259.8,225.8 210.0,254.5 160.2,225.8 160.2,168.3" fill="none" stroke="#d0d7de" stroke-width="1" stroke-dasharray="3 3"/><polygon points="210.0,110.8 284.7,153.9 284.7,240.1 210.0,283.2 135.3,240.1 135.3,153.9" fill="none" stroke="#d0d7de" stroke-width="1" stroke-dasharray="3 3"/><polygon points="210.0,82.0 309.6,139.5 309.6,254.5 210.0,312.0 110.4,254.5 110.4,139.5" fill="none" stroke="#d0d7de" stroke-width="1" stroke-dasharray="3 3"/>
  <line x1="210.0" y1="197.0" x2="210.0" y2="82.0" stroke="#e6eaef" stroke-width="1"/><line x1="210.0" y1="197.0" x2="309.6" y2="139.5" stroke="#e6eaef" stroke-width="1"/><line x1="210.0" y1="197.0" x2="309.6" y2="254.5" stroke="#e6eaef" stroke-width="1"/><line x1="210.0" y1="197.0" x2="210.0" y2="312.0" stroke="#e6eaef" stroke-width="1"/><line x1="210.0" y1="197.0" x2="110.4" y2="254.5" stroke="#e6eaef" stroke-width="1"/><line x1="210.0" y1="197.0" x2="110.4" y2="139.5" stroke="#e6eaef" stroke-width="1"/>
  <polygon points="210.0,95.8 299.6,145.2 295.6,246.4 210.0,291.3 132.3,241.9 130.3,151.0" fill="#2da44e" fill-opacity="0.22" stroke="#1a7f37" stroke-width="2.2"/>
  <circle cx="210.0" cy="95.8" r="3.5" fill="#116329"/><circle cx="299.6" cy="145.2" r="3.5" fill="#116329"/><circle cx="295.6" cy="246.4" r="3.5" fill="#116329"/><circle cx="210.0" cy="291.3" r="3.5" fill="#116329"/><circle cx="132.3" cy="241.9" r="3.5" fill="#116329"/><circle cx="130.3" cy="151.0" r="3.5" fill="#116329"/>
  <text x="210.0" y="64.0" fill="#1f2328" font-size="11.5" font-weight="500" text-anchor="middle" dominant-baseline="central">Python (88%)</text><text x="332.1" y="130.5" fill="#1f2328" font-size="11.5" font-weight="500" text-anchor="start" dominant-baseline="central">Bash / Shell (90%)</text><text x="332.1" y="263.5" fill="#1f2328" font-size="11.5" font-weight="500" text-anchor="start" dominant-baseline="central">Terraform (HCL) (86%)</text><text x="210.0" y="330.0" fill="#1f2328" font-size="11.5" font-weight="500" text-anchor="middle" dominant-baseline="central">JavaScript / Node (82%)</text><text x="87.9" y="263.5" fill="#1f2328" font-size="11.5" font-weight="500" text-anchor="end" dominant-baseline="central">Java (78%)</text><text x="87.9" y="130.5" fill="#1f2328" font-size="11.5" font-weight="500" text-anchor="end" dominant-baseline="central">SQL & Databases (80%)</text>
</svg>