<svg xmlns="http://www.w3.org/2000/svg" width="420" height="370" viewBox="0 0 420 370">
  <style>
    text { font-family: -apple-system, BlinkMacSystemFont, "Segoe UI", Helvetica, Arial, sans-serif; }
  </style>
  <text x="210.0" y="26" fill="#e6edf3" font-size="14.5" font-weight="600" text-anchor="middle" letter-spacing="0.5">DevOps Competencies</text>
  <polygon points="210.0,168.2 232.5,179.1 238.0,203.4 222.5,222.9 197.5,222.9 182.0,203.4 187.5,179.1" fill="none" stroke="#30363d" stroke-width="1" stroke-dasharray="3 3"/><polygon points="210.0,139.5 255.0,161.1 266.1,209.8 234.9,248.8 185.1,248.8 153.9,209.8 165.0,161.1" fill="none" stroke="#30363d" stroke-width="1" stroke-dasharray="3 3"/><polygon points="210.0,110.8 277.4,143.2 294.1,216.2 247.4,274.7 172.6,274.7 125.9,216.2 142.6,143.2" fill="none" stroke="#30363d" stroke-width="1" stroke-dasharray="3 3"/><polygon points="210.0,82.0 299.9,125.3 322.1,222.6 259.9,300.6 160.1,300.6 97.9,222.6 120.1,125.3" fill="none" stroke="#30363d" stroke-width="1" stroke-dasharray="3 3"/>
  <line x1="210.0" y1="197.0" x2="210.0" y2="82.0" stroke="#21262d" stroke-width="1"/><line x1="210.0" y1="197.0" x2="299.9" y2="125.3" stroke="#21262d" stroke-width="1"/><line x1="210.0" y1="197.0" x2="322.1" y2="222.6" stroke="#21262d" stroke-width="1"/><line x1="210.0" y1="197.0" x2="259.9" y2="300.6" stroke="#21262d" stroke-width="1"/><line x1="210.0" y1="197.0" x2="160.1" y2="300.6" stroke="#21262d" stroke-width="1"/><line x1="210.0" y1="197.0" x2="97.9" y2="222.6" stroke="#21262d" stroke-width="1"/><line x1="210.0" y1="197.0" x2="120.1" y2="125.3" stroke="#21262d" stroke-width="1"/>
  <polygon points="210.0,91.2 290.9,132.5 308.7,219.5 252.9,286.1 168.1,284.0 109.1,220.0 138.1,139.6" fill="#aa9bef" fill-opacity="0.22" stroke="#7ee787" stroke-width="2.2"/>
  <circle cx="210.0" cy="91.2" r="3.5" fill="#aa9bef"/><circle cx="290.9" cy="132.5" r="3.5" fill="#aa9bef"/><circle cx="308.7" cy="219.5" r="3.5" fill="#aa9bef"/><circle cx="252.9" cy="286.1" r="3.5" fill="#aa9bef"/><circle cx="168.1" cy="284.0" r="3.5" fill="#aa9bef"/><circle cx="109.1" cy="220.0" r="3.5" fill="#aa9bef"/><circle cx="138.1" cy="139.6" r="3.5" fill="#aa9bef"/>
  <text x="210.0" y="64.0" fill="#c9d1d9" font-size="11.5" font-weight="500" text-anchor="middle" dominant-baseline="central">CI/CD & Automation</text><text x="320.2" y="114.1" fill="#c9d1d9" font-size="11.5" font-weight="500" text-anchor="start" dominant-baseline="central">Docker & Kubernetes</text><text x="347.5" y="226.6" fill="#c9d1d9" font-size="11.5" font-weight="500" text-anchor="start" dominant-baseline="central">Cloud & AWS</text><text x="271.2" y="316.8" fill="#c9d1d9" font-size="11.5" font-weight="500" text-anchor="start" dominant-baseline="central">Infrastructure as Code</text><text x="148.8" y="316.8" fill="#c9d1d9" font-size="11.5" font-weight="500" text-anchor="end" dominant-baseline="central">Prometheus & Grafana</text><text x="72.5" y="226.6" fill="#c9d1d9" font-size="11.5" font-weight="500" text-anchor="end" dominant-baseline="central">Linux & Scripting</text><text x="99.8" y="114.1" fill="#c9d1d9" font-size="11.5" font-weight="500" text-anchor="end" dominant-baseline="central">DevSecOps & Security</text>
</svg>